<svg class="SVGInline-svg" style="width: 16px;height: 16px;" width="16" height="16" viewBox="0 0 16 16" fill="none" xmlns="http://www.w3.org/2000/svg">
<path fill-rule="evenodd" clip-rule="evenodd" d="M1.34921 6.70068C1.12756 6.89066 1 7.16801 1 7.45994V14.5C1 14.7761 1.22386 15 1.5 15H2.5C2.77614 15 3 14.7761 3 14.5V9.5C3 9.22386 3.22386 9 3.5 9H12.5C12.7761 9 13 9.22386 13 9.5V14.5C13 14.7761 13.2239 15 13.5 15H14.5C14.7761 15 15 14.7761 15 14.5V7.45994C15 7.16801 14.8724 6.89066 14.6508 6.70068L8.65079 1.55782C8.2763 1.23683 7.7237 1.23683 7.34921 1.55782L1.34921 6.70068ZM6.5 5.00004C6.22386 5.00004 6 5.2239 6 5.50004V6.50004C6 6.77618 6.22386 7.00004 6.5 7.00004H9.5C9.77614 7.00004 10 6.77618 10 6.50004V5.50004C10 5.2239 9.77614 5.00004 9.5 5.00004H6.5ZM4 10.5C4 10.2239 4.22386 10 4.5 10H11.5C11.7761 10 12 10.2239 12 10.5V11.5C12 11.7761 11.7761 12 11.5 12H4.5C4.22386 12 4 11.7761 4 11.5V10.5ZM4.5 13C4.22386 13 4 13.2239 4 13.5V14.5001C4 14.7762 4.22386 15.0001 4.50001 15.0001L11.5 15C11.7761 15 12 14.7761 12 14.5V13.5C12 13.2239 11.7761 13 11.5 13H4.5Z" fill="#8E9FC3"></path>
</svg>