<svg class="SVGInline-svg SVGInline--cleaned-svg -svg css-164gsi-svg ei7ovjf0-svg" style="width: 15px;height: 15px;" width="21" height="16" viewBox="0 0 21 16" fill="none" xmlns="http://www.w3.org/2000/svg">
<path d="M2.02776 14.9761C1.67124 14.2697 1.39957 13.5053 1.22486 12.7053C1.07774 12.029 1 11.3273 1 10.613C1 5.28907 5.28907 1 10.613 1C15.9365 1 20.226 5.28907 20.226 10.613C20.226 12.1732 19.9088 13.6741 19.2505 14.9777" stroke="#6F7887" stroke-linecap="round" stroke-linejoin="round"></path>
<path fill-rule="evenodd" clip-rule="evenodd" d="M12.3437 10.6718C12.3437 11.5951 11.5951 12.3437 10.6718 12.3437C9.74856 12.3437 9 11.5951 9 10.6718C9 9.74856 9.74856 9 10.6718 9C11.5951 9 12.3437 9.74856 12.3437 10.6718Z" stroke="#6F7887" stroke-linecap="round" stroke-linejoin="round"></path>
<path d="M16.2151 8.30176L12.3436 10.0567" stroke="#6F7887" stroke-linecap="round" stroke-linejoin="round"></path>
</svg>