<svg class="SVGInline-svg SVGInline--cleaned-svg -svg e15zojxg0-svg css-14j0ujo-svg ei7ovjf0-svg" width="24" height="24" viewBox="0 0 24 24" fill="none" xmlns="http://www.w3.org/2000/svg">
<path fill-rule="evenodd" clip-rule="evenodd" d="M5 0C2.23858 0 0 2.23858 0 5V19C0 21.7614 2.23858 24 5 24H19C21.7614 24 24 21.7614 24 19V5C24 2.23858 21.7614 0 19 0H5ZM9.64299 6.30853C10.3905 5.99907 11.1916 5.83995 12.0006 5.84024C12.8096 5.83995 13.6107 5.99907 14.3582 6.30853C15.1056 6.61798 15.7848 7.07169 16.3568 7.64373C16.9289 8.21578 17.3826 8.89494 17.692 9.64241C18.0015 10.3899 18.1606 11.191 18.1603 12C18.1606 12.809 18.0015 13.6101 17.692 14.3576C17.3826 15.105 16.9289 15.7842 16.3568 16.3563C15.7848 16.9283 15.1056 17.382 14.3582 17.6915C13.6107 18.0009 12.8096 18.16 12.0006 18.1597C11.1916 18.16 10.3905 18.0009 9.64299 17.6915C8.89552 17.382 8.21636 16.9283 7.64431 16.3563C7.07227 15.7842 6.61855 15.105 6.3091 14.3576C5.99965 13.6101 5.84053 12.809 5.84082 12C5.84053 11.191 5.99965 10.3899 6.3091 9.64241C6.61855 8.89494 7.07227 8.21578 7.64431 7.64373C8.21636 7.07169 8.89552 6.61798 9.64299 6.30853ZM8.00082 12C8.00082 14.211 9.78957 15.9997 12.0006 15.9997C14.2116 15.9997 16.0003 14.211 16.0003 12C16.0003 9.78899 14.2116 8.00024 12.0006 8.00024C9.78957 8.00024 8.00082 9.78899 8.00082 12ZM19.4256 6.6131C19.696 6.34295 19.8482 5.97649 19.8486 5.59424C19.8486 4.80149 19.1991 4.15649 18.4063 4.15649C18.2173 4.15649 18.0302 4.19372 17.8555 4.26605C17.6809 4.33838 17.5223 4.44439 17.3886 4.57804C17.255 4.71169 17.149 4.87035 17.0766 5.04497C17.0043 5.21958 16.9671 5.40674 16.9671 5.59574C16.9671 5.78475 17.0043 5.9719 17.0766 6.14652C17.149 6.32114 17.255 6.4798 17.3886 6.61345C17.5223 6.74709 17.6809 6.85311 17.8555 6.92544C18.0302 6.99777 18.2173 7.03499 18.4063 7.03499C18.7886 7.03499 19.1552 6.88325 19.4256 6.6131Z" fill="#3E47DD"></path>
</svg>