<svg class="SVGInline-svg SVGInline--cleaned-svg -svg e15zojxg0-svg css-14j0ujo-svg ei7ovjf0-svg" width="24" height="24" viewBox="0 0 24 24" fill="none" xmlns="http://www.w3.org/2000/svg">
<path fill-rule="evenodd" clip-rule="evenodd" d="M5 0C2.23858 0 0 2.23858 0 5V19C0 21.7614 2.23858 24 5 24H19C21.7614 24 24 21.7614 24 19V5C24 2.23858 21.7614 0 19 0H5ZM10.2329 15.9005L16.5956 12.6192C16.7185 12.5569 16.8206 12.4668 16.8916 12.3581C16.9626 12.2494 17 12.1259 17 12.0002C17 11.8745 16.9626 11.751 16.8916 11.6423C16.8206 11.5336 16.7185 11.4435 16.5956 11.3812L10.2329 8.09985C9.69197 7.82078 9 8.15851 9 8.71843V15.2811C9 15.8419 9.69297 16.1787 10.2329 15.9005Z" fill="#3E47DD"></path>
</svg>